<svg version="1.2" baseProfile="tiny-ps" xmlns="http://www.w3.org/2000/svg" viewBox="0 0 100 100" width="100" height="100">
	<title>cancel-svg</title>
	<style>
		tspan { white-space:pre }
		.shp0 { fill: #ffffff } 
	</style>
	<path id="Layer" fill-rule="evenodd" class="shp0" d="M50 0C53.28 0 56.54 0.31 59.76 0.95C62.97 1.59 66.11 2.54 69.14 3.79C72.17 5.04 75.06 6.59 77.79 8.41C80.51 10.24 83.05 12.32 85.36 14.64C102.23 31.5 104.84 57.94 91.59 77.77C78.34 97.61 52.92 105.32 30.88 96.2C8.84 87.07 -3.68 63.65 0.97 40.25C5.62 16.86 26.15 0 50 0ZM83.15 83.15C91.94 74.36 96.88 62.43 96.88 50C96.88 37.57 91.94 25.64 83.15 16.85C74.36 8.06 62.43 3.12 50 3.12C37.57 3.12 25.64 8.06 16.85 16.85C8.06 25.64 3.12 37.57 3.12 50C3.12 62.43 8.06 74.36 16.85 83.15C25.64 91.94 37.57 96.88 50 96.88C62.43 96.88 74.36 91.94 83.15 83.15L83.15 83.15Z" />
	<path id="Layer" class="shp0" d="M77.44 22.56C77.3 22.41 77.12 22.3 76.93 22.22C76.74 22.14 76.54 22.1 76.34 22.1C76.13 22.1 75.93 22.14 75.74 22.22C75.55 22.3 75.37 22.41 75.23 22.56L50 47.79L24.77 22.56C24.48 22.27 24.08 22.11 23.66 22.11C23.25 22.11 22.85 22.27 22.56 22.56C22.27 22.85 22.11 23.25 22.11 23.66C22.11 24.08 22.27 24.48 22.56 24.77L47.79 50L22.56 75.23C22.27 75.52 22.1 75.92 22.11 76.34C22.11 76.75 22.27 77.15 22.56 77.44C22.85 77.73 23.25 77.9 23.67 77.9C24.08 77.9 24.48 77.73 24.77 77.44L50 52.21L75.23 77.44C75.52 77.73 75.92 77.9 76.34 77.9C76.75 77.9 77.15 77.73 77.44 77.44C77.73 77.15 77.9 76.75 77.9 76.34C77.9 75.92 77.73 75.52 77.44 75.23L52.21 50L77.44 24.77C77.59 24.63 77.7 24.45 77.78 24.26C77.86 24.07 77.9 23.87 77.9 23.66C77.9 23.46 77.86 23.26 77.78 23.07C77.7 22.88 77.59 22.7 77.44 22.56Z" />
</svg>