<svg xmlns="http://www.w3.org/2000/svg" xmlns:xlink="http://www.w3.org/1999/xlink" version="1.1" x="0px" y="0px" viewBox="0 0 96 120" style="enable-background:new 0 0 96 96;" xml:space="preserve"><g><g><path d="M48,2C22.6,2,2,22.6,2,48c0,11.3,4.1,21.6,10.8,29.6c0.9,1,1.8,2,2.8,3C23.9,88.9,35.4,94,48,94s24.1-5.1,32.4-13.4    c1-1,1.9-2,2.8-3C89.9,69.6,94,59.3,94,48C94,22.6,73.4,2,48,2z M48,90c-11.6,0-22.2-4.8-29.8-12.4c5.2-5.3,12.4-8.6,20.4-8.6    h18.8c8,0,15.2,3.3,20.4,8.6C70.2,85.2,59.6,90,48,90z M80.5,74.6C74.6,68.7,66.4,65,57.4,65h-0.2C64.7,61.5,70,53.9,70,45    c0-12.1-9.9-22-22-22s-22,9.9-22,22c0,8.9,5.3,16.5,12.8,20h-0.2c-9,0-17.2,3.7-23.1,9.6C9.6,67.3,6,58.1,6,48C6,24.8,24.8,6,48,6    s42,18.8,42,42C90,58.1,86.4,67.3,80.5,74.6z M48,63c-9.9,0-18-8.1-18-18s8.1-18,18-18s18,8.1,18,18S57.9,63,48,63z"/></g></g><text x="0" y="111" fill="#000000" font-size="5px" font-weight="bold" font-family="'Helvetica Neue', Helvetica, Arial-Unicode, Arial, Sans-serif">Created by icongeek</text><text x="0" y="116" fill="#000000" font-size="5px" font-weight="bold" font-family="'Helvetica Neue', Helvetica, Arial-Unicode, Arial, Sans-serif">from the Noun Project</text></svg>