<svg version="1.2" baseProfile="tiny-ps" xmlns="http://www.w3.org/2000/svg" viewBox="0 0 100 125" width="100" height="125">
	<title>resume-svg</title>
	<style>
		tspan { white-space:pre }
		.shp0 { fill: #ffc107 } 
	</style>
	<g id="Layer">
		<path id="Layer" fill-rule="evenodd" class="shp0" d="M50.03 6C52.61 6.08 55.43 7.25 58.59 10.78L68 10.78C68.52 10.78 69 11.26 69 11.78L69 16L83 16C83.52 16 84 16.48 84 17L84 91C84 91.52 83.52 92 83 92L17 92C16.48 92 16 91.52 16 91L16 17C15.99 16.53 16.35 16.09 16.81 16C21.52 16 26.28 16 31 16L31 11.78C31 11.26 31.48 10.78 32 10.78L41.41 10.78C44.57 7.25 47.39 6.08 49.97 6C49.99 6 50.01 6 50.03 6ZM42.59 12.44C42.41 12.65 42.13 12.78 41.84 12.78L33 12.78L33 22L67 22L67 12.78L58.16 12.78C57.87 12.78 57.59 12.65 57.41 12.44C54.36 8.89 52.17 8.08 50.03 8C50.01 8 49.99 8 49.97 8C47.83 8.08 45.64 8.89 42.59 12.44ZM18 90L82 90L82 18L69 18L69 23C69 23.52 68.52 24 68 24L32 24C31.48 24 31 23.52 31 23L31 18L18 18L18 90ZM55 33C55 35.75 52.75 38 50 38C47.25 38 45 35.75 45 33C45 30.25 47.25 28 50 28C52.75 28 55 30.25 55 33ZM47 33C47 34.67 48.33 36 50 36C51.67 36 53 34.67 53 33C53 31.33 51.67 30 50 30C48.33 30 47 31.33 47 33ZM65 53.84C65.08 54.37 64.68 54.92 64.16 55C63.63 55.08 63.08 54.68 63 54.16C62.1 48.45 56.7 44 50 44C43.3 44 37.9 48.45 37 54.16C36.92 54.68 36.37 55.08 35.84 55C35.32 54.92 34.92 54.37 35 53.84C36.06 47.08 42.41 42 50 42C57.59 42 63.94 47.08 65 53.84ZM69.47 64C70 63.99 70.48 64.47 70.48 65C70.48 65.53 70 66.01 69.47 66L30.53 66C30.01 66.05 29.49 65.62 29.44 65.09C29.39 64.57 29.82 64.05 30.34 64C43.37 64 56.43 64 69.47 64ZM69.47 73C70 72.99 70.48 73.47 70.48 74C70.48 74.53 70 75.01 69.47 75L30.53 75C30.01 75.05 29.49 74.62 29.44 74.09C29.39 73.57 29.82 73.05 30.34 73C43.37 73 56.43 73 69.47 73ZM69.47 82C70 81.99 70.48 82.47 70.48 83C70.48 83.53 70 84.01 69.47 84L30.53 84C30.01 84.05 29.49 83.62 29.44 83.09C29.39 82.57 29.82 82.05 30.34 82C43.37 82 56.43 82 69.47 82Z" />
	</g>
</svg>