<svg xmlns:dc="http://purl.org/dc/elements/1.1/" xmlns:cc="http://creativecommons.org/ns#" xmlns:rdf="http://www.w3.org/1999/02/22-rdf-syntax-ns#" xmlns:svg="http://www.w3.org/2000/svg" xmlns="http://www.w3.org/2000/svg" xmlns:sodipodi="http://sodipodi.sourceforge.net/DTD/sodipodi-0.dtd" xmlns:inkscape="http://www.inkscape.org/namespaces/inkscape" version="1.1" x="0px" y="0px" viewBox="0 0 100 125"><g transform="translate(0,-952.36218)"><path style="text-indent:0;text-transform:none;direction:ltr;block-progression:tb;baseline-shift:baseline;color:#000000;enable-background:accumulate;" d="m 49.96875,6 c -2.576261,0.08 -5.402776,1.25047 -8.5625,4.78125 l -9.40625,0 c -0.523584,5.2e-5 -0.999948,0.476416 -1,1 L 31,16 c -4.722614,-6e-6 -9.479501,0 -14.1875,0 -0.458402,0.08747 -0.820723,0.5334 -0.8125,1 l 0,74 c 5.2e-5,0.523584 0.476416,0.999948 1,1 l 66,0 c 0.523584,-5.2e-5 0.999948,-0.476416 1,-1 l 0,-74 c -5.2e-5,-0.523584 -0.476416,-0.999948 -1,-1 l -14,0 0,-4.21875 c -5.2e-5,-0.523584 -0.476416,-0.999948 -1,-1 l -9.40625,0 C 55.434021,7.25047 52.607467,6.08009 50.03125,6 c -0.02083,-6.511e-4 -0.04167,-6.511e-4 -0.0625,0 z m 0,2 c 0.01864,5.8e-4 0.04385,-6.9e-4 0.0625,0 2.140823,0.0793 4.326028,0.88689 7.375,4.4375 0.186035,0.213886 0.466532,0.342447 0.75,0.34375 l 8.84375,0 0,9.21875 -17,0 -17,0 0,-9.21875 8.84375,0 c 0.283468,-0.0013 0.563965,-0.129864 0.75,-0.34375 C 45.642725,8.88689 47.827973,8.07921 49.96875,8 z M 18,18 l 13,0 0,5 c 5.2e-5,0.523584 0.476416,0.999948 1,1 l 18,0 18,0 c 0.523584,-5.2e-5 0.999948,-0.476416 1,-1 l 0,-5 13,0 0,72 -64,0 z m 32,10 c -2.749579,0 -5,2.25041 -5,5 0,2.74958 2.250421,5 5,5 2.749578,0 5,-2.25042 5,-5 0,-2.74959 -2.250422,-5 -5,-5 z m 0,2 c 1.668698,0 3,1.3313 3,3 0,1.6687 -1.331302,3 -3,3 -1.668699,0 -3,-1.3313 -3,-3 0,-1.6687 1.331301,-3 3,-3 z m 0,12 C 42.407535,42 36.062476,47.08463 35,53.84375 34.918188,54.367349 35.320151,54.918187 35.84375,55 36.367349,55.081812 36.918188,54.679849 37,54.15625 37.896332,48.45415 43.297235,44 50,44 56.702764,44 62.103666,48.45415 63,54.15625 63.081812,54.679849 63.632651,55.081812 64.15625,55 64.679849,54.918187 65.081812,54.367349 65,53.84375 63.937522,47.08463 57.592464,42 50,42 z M 30.34375,64 c -0.523599,0.04909 -0.955337,0.570151 -0.90625,1.09375 0.04909,0.523599 0.570151,0.955337 1.09375,0.90625 l 38.9375,0 c 0.528313,0.0075 1.014242,-0.471635 1.014242,-1 0,-0.528365 -0.485929,-1.007472 -1.014242,-1 -13.03706,-10e-7 -26.101782,0 -39.125,0 z m 0,9 c -0.523599,0.04909 -0.955337,0.570151 -0.90625,1.09375 0.04909,0.523599 0.570151,0.955337 1.09375,0.90625 l 38.9375,0 c 0.528313,0.0075 1.014242,-0.471635 1.014242,-1 0,-0.528365 -0.485929,-1.007472 -1.014242,-1 -13.03706,-10e-7 -26.101782,0 -39.125,0 z m 0,9 c -0.523599,0.04909 -0.955337,0.570151 -0.90625,1.09375 0.04909,0.523599 0.570151,0.955337 1.09375,0.90625 l 38.9375,0 c 0.528313,0.0075 1.014242,-0.471635 1.014242,-1 0,-0.528365 -0.485929,-1.007472 -1.014242,-1 -13.03706,-10e-7 -26.101782,0 -39.125,0 z" transform="translate(0,952.36218)" fill="#000000" fill-opacity="1" fill-rule="nonzero" stroke="none" marker="none" visibility="visible" display="inline" overflow="visible"/></g><text x="0" y="115" fill="#000000" font-size="5px" font-weight="bold" font-family="'Helvetica Neue', Helvetica, Arial-Unicode, Arial, Sans-serif">Created by nauraicon</text><text x="0" y="120" fill="#000000" font-size="5px" font-weight="bold" font-family="'Helvetica Neue', Helvetica, Arial-Unicode, Arial, Sans-serif">from the Noun Project</text></svg>