<svg xmlns="http://www.w3.org/2000/svg" data-name="Layer 1" viewBox="0 0 100 125" x="0px" y="0px"><title>fc</title><path d="M70.27,50.26a7.51,7.51,0,0,1-2.21,5.33L38.92,84.74a1.56,1.56,0,0,1-2.21-2.21L65.86,53.39a4.42,4.42,0,0,0,0-6.25L36.19,17.47a1.56,1.56,0,0,1,2.21-2.21L68.06,44.93A7.51,7.51,0,0,1,70.27,50.26Z"/><path d="M3.13,50A46.88,46.88,0,1,1,50,96.87,46.92,46.92,0,0,1,3.13,50M0.07,47.39A50,50,0,1,0,47.4.06,50,50,0,0,0,.07,47.39Z"/><text x="0" y="115" fill="#000000" font-size="5px" font-weight="bold" font-family="'Helvetica Neue', Helvetica, Arial-Unicode, Arial, Sans-serif">Created by Dániel Aczél</text><text x="0" y="120" fill="#000000" font-size="5px" font-weight="bold" font-family="'Helvetica Neue', Helvetica, Arial-Unicode, Arial, Sans-serif">from the Noun Project</text></svg>