<svg version="1.2" baseProfile="tiny-ps" xmlns="http://www.w3.org/2000/svg" viewBox="0 0 100 100" width="100" height="100">
	<title>right-svg</title>
	<style>
		tspan { white-space:pre }
		.shp0 { fill: #ffffff } 
	</style>
	<path id="Layer" class="shp0" d="M70.27 50.26C70.27 50.75 70.22 51.25 70.13 51.73C70.03 52.22 69.89 52.69 69.7 53.15C69.51 53.6 69.27 54.04 69 54.45C68.72 54.86 68.41 55.24 68.06 55.59L38.92 84.74C38.63 85.03 38.23 85.19 37.81 85.19C37.4 85.19 37 85.03 36.71 84.74C36.42 84.45 36.25 84.05 36.25 83.63C36.25 83.22 36.42 82.82 36.71 82.53L65.86 53.39C66.27 52.98 66.6 52.49 66.82 51.96C67.04 51.42 67.15 50.85 67.15 50.27C67.15 49.68 67.04 49.11 66.82 48.57C66.6 48.04 66.27 47.55 65.86 47.14L36.19 17.47C35.9 17.18 35.73 16.78 35.73 16.36C35.73 15.95 35.9 15.55 36.19 15.26C36.48 14.97 36.88 14.8 37.3 14.8C37.71 14.8 38.11 14.97 38.4 15.26L68.06 44.93C68.41 45.28 68.72 45.66 69 46.07C69.27 46.48 69.51 46.92 69.7 47.37C69.89 47.83 70.03 48.3 70.13 48.79C70.22 49.27 70.27 49.77 70.27 50.26Z" />
	<path id="Layer" fill-rule="evenodd" class="shp0" d="M0.07 47.39C0.39 41.27 1.83 35.26 4.32 29.66C6.81 24.06 10.31 18.97 14.65 14.64C18.98 10.3 24.07 6.8 29.67 4.31C35.27 1.82 41.28 0.38 47.4 0.06C68.07 -1.02 87.27 10.75 95.68 29.66C104.1 48.57 99.99 70.71 85.36 85.35C70.72 99.98 48.58 104.09 29.67 95.67C10.76 87.26 -1.01 68.06 0.07 47.39ZM3.13 50C3.14 56.15 4.35 62.25 6.71 67.93C9.07 73.61 12.52 78.78 16.87 83.13C21.22 87.48 26.39 90.93 32.07 93.29C37.75 95.65 43.85 96.86 50 96.87C68.96 96.87 86.06 85.45 93.32 67.93C100.58 50.42 96.57 30.25 83.16 16.84C69.75 3.43 49.58 -0.58 32.07 6.68C14.55 13.94 3.13 31.04 3.13 50Z" />
</svg>