<svg version="1.2" baseProfile="tiny-ps" xmlns="http://www.w3.org/2000/svg" viewBox="0 0 100 100" width="450" height="450">
	<title>styled_work-svg</title>
	<style>
		tspan { white-space:pre }
		.shp0 { fill: #ff5722 } 
	</style>
	<g id="Layer">
		<path id="Layer" fill-rule="evenodd" class="shp0" d="M89.4 13.3L74.3 36.4L80.8 36.4C81.1 36.4 81.5 36.6 81.5 37.1C81.5 37.4 81.3 37.8 80.8 37.8L79.2 37.8L79.2 81.1C79.2 88.9 73.9 95.1 67.5 95.1L40 95.1C33.5 95.1 28.3 88.8 28.3 81.2L28.3 77.7L15.8 77.7C12.7 77.7 10.1 74.4 10.1 70.5L10.1 52.6C10.1 48.6 12.7 45.4 15.8 45.4L28.2 45.4L28.2 37.8L27.1 37.8C26.8 37.8 26.4 37.6 26.4 37.1C26.4 36.8 26.6 36.4 27.1 36.4L55.4 36.4L55.4 35.1C55.4 29.5 55.4 29.5 55.7 25.3L55.7 24.3C55.7 22.9 56.4 21.7 57.4 20.9C57.8 20.7 58.1 20.4 58.6 20.2C57.1 19.8 55.9 19.1 55.2 18C54.2 16.6 54.1 14.7 54.8 13C55 12.5 55.3 12.1 55.6 11.5C56.1 10.6 56.6 9.6 56.7 8.9C56.8 7.9 56.1 7.1 55.7 6.7C55.6 6.5 55.5 6.5 55.5 6.4L55.2 5.9L55.4 5.4C55.6 5 55.9 4.8 57.3 4.9C58.6 5 64.8 5.6 67 10.9C67.9 13.1 67.7 15.5 66.5 17.3C65.6 18.8 64.2 19.7 62.5 20.1C63.2 20.4 63.7 20.9 64.2 21.5C65 22.5 65.3 23.8 65 25.1C64.6 27.5 64.4 28.6 64.2 29.7C64 31.1 63.8 32.4 63 36.3L63.7 36.3L81.9 8.4C82.6 7.5 83.6 6.9 84.7 6.6C85.9 6.4 87 6.5 88 7.2C89 7.9 89.7 8.9 89.9 10C90.1 11.1 89.9 12.3 89.4 13.3ZM28.3 47L15.8 47C13.5 47 11.6 49.5 11.6 52.6L11.6 70.6C11.6 73.6 13.5 76.2 15.8 76.2L28.2 76.2L28.2 73.9L19.2 73.9C16.2 73.9 13.8 70.6 13.8 66.7L13.8 56C13.8 52 16.3 49.2 19.2 49.2L28.2 49.2C28.2 49.2 28.2 47 28.3 47ZM28.2 50.8L19.2 50.8C17 50.8 15.3 52.9 15.3 56L15.3 66.7C15.3 69.8 17.1 72.3 19.2 72.3L28.2 72.3L28.2 50.8ZM65.4 36.3L67.8 36.3L81.8 15.2L80.1 14.1L65.4 36.3ZM61.5 18.8C63.1 18.7 64.5 17.9 65.3 16.6C66.3 15.2 66.4 13.3 65.7 11.6C64 7.7 59.8 6.8 57.6 6.6C57.9 7.2 58.3 8 58.2 8.9C58.1 10 57.4 11.1 56.8 12.1C56.6 12.6 56.3 13 56.1 13.4C55.7 14.6 55.8 15.9 56.4 16.9C57.3 18.1 59.2 18.8 61.5 18.8ZM57.2 24.6C59.2 24.2 60.3 25.5 60.9 26.3C61.2 26.7 61.5 27.1 61.8 27.1C62 27.1 62.5 27 63.5 26C63.5 25.6 63.6 25.3 63.7 24.8C63.8 24 63.7 23.1 63.1 22.4C62.7 21.7 61.8 21.2 61 21.1C60 21 59.1 21.2 58.4 21.8C57.7 22.4 57.3 23.2 57.2 24.1L57.2 24.6ZM57 26.8C58.6 26.7 59.2 27.8 59.7 28.5C60.2 29.5 60.6 30.1 62.8 28.9C62.9 28.7 62.9 28.4 63 28.1C62.6 28.4 62.2 28.5 61.8 28.5L61.7 28.5C60.7 28.5 60.2 27.7 59.7 27.1C58.9 26.2 58.5 25.6 57.1 26.1C57 26.4 57 26.8 57 26.8ZM56.9 35L56.9 36.2L61.6 36.2C62.1 33.5 62.4 31.9 62.6 30.8C61.9 31.1 61.4 31.2 60.9 31.2C59.6 31.2 59 30.4 58.4 29.5C57.9 28.7 57.7 28.4 56.9 28.6C56.8 30.2 56.8 31.5 56.9 35ZM77.6 37.8L50.6 37.8L50.6 76.8C50.6 78.9 48.8 80.5 46.7 80.2C45 79.9 43.8 78.4 43.8 76.7L43.8 49.3C43.8 48.1 42.7 47.2 41.5 47.5C40.6 47.7 40 48.5 40 49.4L40 61.8C40 63.9 38.2 65.5 36.1 65.2C34.4 64.9 33.2 63.4 33.2 61.7L33.2 37.8L29.8 37.8L29.8 81C29.8 87.8 34.3 93.4 39.9 93.4L67.5 93.4C73 93.4 77.6 87.8 77.6 81L77.6 37.8ZM34.7 61.7C34.7 62.9 35.8 63.8 37 63.5C37.9 63.3 38.5 62.5 38.5 61.6L38.5 49.3C38.5 47.2 40.3 45.6 42.4 45.9C44.1 46.2 45.3 47.7 45.3 49.4L45.3 76.8C45.3 78 46.4 78.9 47.6 78.6C48.5 78.4 49.1 77.6 49.1 76.7L49.1 37.8L34.7 37.8C34.7 37.8 34.7 61.8 34.7 61.7ZM84.8 17.1L83.1 16L69.7 36.3L72.2 36.3L84.8 17.1ZM86.1 15.3L81.3 12.2L80.9 12.8L85.7 15.9L86.1 15.3ZM88.3 10.2C88.2 9.4 87.7 8.9 87.1 8.4C86.5 8 85.7 7.8 85 8C84.2 8.1 83.7 8.6 83.2 9.2L82.1 10.9L86.9 14L88 12.4C88.4 11.8 88.6 11 88.3 10.2ZM61 20.3L61 20.5L61 20.3Z" />
		<path id="Layer" class="shp0" d="M73 67.7C73.5 67.7 73.7 67.3 73.7 67L73.7 42C73.7 41.5 73.3 41.3 73 41.3C72.5 41.3 72.3 41.7 72.3 42L72.3 67C72.3 67.4 72.6 67.7 73 67.7Z" />
		<path id="Layer" class="shp0" d="M73 74.5C73.5 74.5 73.7 74.1 73.7 73.8L73.7 69.3C73.7 68.8 73.3 68.6 73 68.6C72.5 68.6 72.3 69 72.3 69.3L72.3 73.8C72.3 74.2 72.6 74.5 73 74.5Z" />
		<path id="Layer" class="shp0" d="M62.6 18.1C62.7 18.1 62.7 18.1 62.8 18.1C63.8 17.9 64.8 16.7 65.4 15.3C66 13.6 65.8 11.8 64.7 10.3C64.4 9.9 64 9.8 63.6 10.1C63.2 10.4 63.1 10.8 63.4 11.1C64.4 12.6 64.2 13.9 64 14.8C63.5 15.9 62.7 16.5 62.5 16.6C62.1 16.7 61.9 17.1 61.9 17.5C61.9 18 62.2 18.1 62.6 18.1Z" />
	</g>
</svg>