<svg version="1.2" baseProfile="tiny-ps" xmlns="http://www.w3.org/2000/svg" viewBox="0 0 90 97" width="350" height="377">
	<title>resume-styled-svg</title>
	<style>
		tspan { white-space:pre }
		.shp0 { fill: #ffc107 } 
	</style>
	<g id="Layer">
		<path id="Layer" fill-rule="evenodd" class="shp0" d="M46.03 6C48.61 6.08 51.43 7.25 54.59 10.78L64 10.78C64.52 10.78 65 11.26 65 11.78L65 16L79 16C79.52 16 80 16.48 80 17L80 91C80 91.52 79.52 92 79 92L13 92C12.48 92 12 91.52 12 91L12 17C11.99 16.53 12.35 16.09 12.81 16C17.52 16 22.28 16 27 16L27 11.78C27 11.26 27.48 10.78 28 10.78L37.41 10.78C40.57 7.25 43.39 6.08 45.97 6C45.99 6 46.01 6 46.03 6ZM38.59 12.44C38.41 12.65 38.13 12.78 37.84 12.78L29 12.78L29 22L63 22L63 12.78L54.16 12.78C53.87 12.78 53.59 12.65 53.41 12.44C50.36 8.89 48.17 8.08 46.03 8C46.01 8 45.99 8 45.97 8C43.83 8.08 41.64 8.89 38.59 12.44ZM14 90L78 90L78 18L65 18L65 23C65 23.52 64.52 24 64 24L28 24C27.48 24 27 23.52 27 23L27 18L14 18L14 90ZM51 33C51 35.75 48.75 38 46 38C43.25 38 41 35.75 41 33C41 30.25 43.25 28 46 28C48.75 28 51 30.25 51 33ZM43 33C43 34.67 44.33 36 46 36C47.67 36 49 34.67 49 33C49 31.33 47.67 30 46 30C44.33 30 43 31.33 43 33ZM61 53.84C61.08 54.37 60.68 54.92 60.16 55C59.63 55.08 59.08 54.68 59 54.16C58.1 48.45 52.7 44 46 44C39.3 44 33.9 48.45 33 54.16C32.92 54.68 32.37 55.08 31.84 55C31.32 54.92 30.92 54.37 31 53.84C32.06 47.08 38.41 42 46 42C53.59 42 59.94 47.08 61 53.84ZM65.47 64C66 63.99 66.48 64.47 66.48 65C66.48 65.53 66 66.01 65.47 66L26.53 66C26.01 66.05 25.49 65.62 25.44 65.09C25.39 64.57 25.82 64.05 26.34 64C39.37 64 52.43 64 65.47 64ZM65.47 73C66 72.99 66.48 73.47 66.48 74C66.48 74.53 66 75.01 65.47 75L26.53 75C26.01 75.05 25.49 74.62 25.44 74.09C25.39 73.57 25.82 73.05 26.34 73C39.37 73 52.43 73 65.47 73ZM65.47 82C66 81.99 66.48 82.47 66.48 83C66.48 83.53 66 84.01 65.47 84L26.53 84C26.01 84.05 25.49 83.62 25.44 83.09C25.39 82.57 25.82 82.05 26.34 82C39.37 82 52.43 82 65.47 82Z" />
	</g>
</svg>