<svg version="1.2" baseProfile="tiny-ps" xmlns="http://www.w3.org/2000/svg" viewBox="0 0 497 511" width="457" height="470">
	<title>github-svg</title>
	<style>
		tspan { white-space:pre }
		.shp0 { fill: #673ab7 } 
	</style>
	<g id="Layer">
		<g id="Layer">
			<g id="Layer">
				<path id="Layer" class="shp0" d="M125.92 490L91.78 490C74.5 490 60.44 475.94 60.44 458.66L60.44 298.65L91.78 298.65L91.78 458.66L125.92 458.66L125.92 490L125.92 490Z" />
				<path id="Layer" class="shp0" d="M326.5 265.68C280.84 293.42 218.41 293.42 172.75 265.68C158.65 282.81 150.17 304.75 150.17 328.68L150.17 489.58L194.67 489.58L194.67 397.6L226.01 397.6L226.01 489.58L271 489.58L271 397.6L302.35 397.6L302.35 489.58L349.08 489.58L349.08 328.68C349.08 304.75 340.61 282.81 326.5 265.68Z" />
			</g>
			<g id="Layer">
				<path id="Layer" class="shp0" d="M336.29 84.95C340.99 60.84 331.78 37.08 312.54 22C299.38 31 286.4 44.22 286.75 61.21C262.21 53.64 240.45 53.7 216.05 61.26C213.67 46.06 201.03 24.69 185.32 22.86C169.3 38 162.24 60.34 166.66 81.93L166.66 81.93C144.44 99.28 130.64 123.54 130.64 150.39C130.64 203.14 183.91 245.9 249.63 245.9C315.35 245.9 368.62 203.14 368.62 150.39C368.62 125.06 356.33 102.04 336.29 84.95Z" />
				<path id="Layer" class="shp0" d="M390.38 137.23L438.82 137.23L438.82 168.58L390.38 168.58L390.38 137.23Z" />
				<path id="Layer" class="shp0" d="M59.19 168.58L59.46 137.23L109.43 137.67L109.15 169.01L59.19 168.58Z" />
			</g>
		</g>
	</g>
</svg>