<svg xmlns="http://www.w3.org/2000/svg" xmlns:xlink="http://www.w3.org/1999/xlink" version="1.1" x="0px" y="0px" viewBox="0 0 100 125" style="enable-background:new 0 0 100 100;" xml:space="preserve"><g><path d="M52.1,20.2L52.1,20.2c1-0.2,2.3-1.4,2.9-3c0.7-1.9,0.5-3.9-0.8-5.8c-0.2-0.2-0.5-0.3-0.6-0.1   c-0.2,0.2-0.3,0.5-0.1,0.6c1.4,2,1.2,3.8,0.7,5c-0.6,1.4-1.7,2.4-2.2,2.5c-0.3,0.1-0.4,0.3-0.4,0.6C51.7,20.1,51.9,20.2,52.1,20.2z   "/><path d="M85.7,39.1c0-2.8-5.5-5.2-14-6.8L85.2,13c1.5-2.2,0.8-5.2-1.4-6.7c-1.1-0.7-2.4-0.9-3.7-0.7c-1.3,0.3-2.4,1-3.1,2.1   L61.7,31c-2.3-0.2-4.7-0.4-7.2-0.4c0.1-0.6,0.1-1.3,0.2-2c0.3-2.8-1.2-5.1-3.5-5.9c2.3-0.2,4.2-1.4,5.4-3.3   c1.4-2.2,1.6-4.9,0.6-7.4c-2.6-6.2-10-6.9-11.4-7c-1.7-0.1-1.8,0.2-1.9,0.4l-0.1,0.3l0.1,0.3c0,0.1,0.1,0.2,0.2,0.3   c0.5,0.6,1.6,1.7,1.4,3c-0.1,1-0.7,2.2-1.5,3.3c-0.4,0.6-0.7,1.2-1,1.7c-0.8,1.9-0.7,4,0.4,5.7c0.7,1.1,2.1,2.3,4.7,2.7   c-0.7,0.2-1.5,0.6-2.1,1.1c-1.2,0.9-1.8,2.3-1.9,3.8c-0.1,1.2-0.1,2.2-0.2,3.2c-0.7,0-1.6,0.1-2.3,0.1l-1.2-12.9   c0-0.1,0-0.2-0.1-0.2l-4-6.2c-0.1-0.2-0.3-0.2-0.5-0.2s-0.3,0.1-0.4,0.3l-2.7,6.8c0,0.1,0,0.2,0,0.2l1.2,12.9   c-10.7,1.3-18.3,3.8-19.6,6.8l-0.1,0.1c-0.1,0.3-0.2,0.5-0.2,0.7c0,0.3,0.1,0.5,0.2,0.7v26.7c0,1.1,0.1,2.2,0.3,3.3   c0,0,0,0.1,0,0.2c2.1,14,17.2,25,35.4,25s33.4-11,35.4-25.2v-0.1l0,0c0.2-1,0.3-2.1,0.3-3.2v-7l0,0l0,0V49.4l0,0l0,0v-9.5   C85.7,39.6,85.7,39.3,85.7,39.1z M75.3,34.2c6.9,1.7,9.3,3.7,9.3,5c0,0.5-0.4,1-1.1,1.7c-2.8-1.8-8.1-3.3-14.7-4.3l2.2-3.2   C72.5,33.6,74,33.8,75.3,34.2z M82.5,41.5c-1.5,0.8-3.8,1.7-7.2,2.6c-3.8,0.9-8.3,1.7-13.2,2l6-8.5C75,38.4,79.8,39.9,82.5,41.5z    M60.9,46.1c-1.2,0.1-2.5,0.2-3.8,0.3L77.7,16l2.8,1.8L60.9,46.1z M77.8,8.1c0.6-0.9,1.5-1.5,2.5-1.7c1-0.2,2.1,0,2.9,0.6   c1.8,1.2,2.3,3.7,1.2,5.4l-1.7,2.4l-6.6-4.2L77.8,8.1z M75.7,11.3l6.5,4.2l-1,1.5l-6.4-4.2L75.7,11.3z M74.1,13.6l2.8,1.8L56,46.4   c-1.1,0-2.2,0.1-3.4,0.1c0,0,0,0,0-0.1L74.1,13.6z M54.3,32.8c0-0.4,0.1-0.7,0.1-1.2c2.3,0.1,4.4,0.2,6.5,0.4l-2.2,3.4   c-1.6-0.1-3-0.2-4.7-0.2C54.2,34.5,54.2,33.7,54.3,32.8z M58.1,36.5l-5,7.7c0.6-3.5,0.8-5.8,1-7.9C55.4,36.4,56.8,36.5,58.1,36.5z    M44.2,19.3c-0.9-1.4-1-3.1-0.3-4.8c0.3-0.6,0.6-1.1,0.9-1.7c0.7-1.2,1.5-2.5,1.6-3.7c0.1-1.5-0.6-2.6-1.3-3.3   c2.2,0,8.9,0.8,11.2,6.4c0.9,2.3,0.7,4.7-0.5,6.5c-1.1,1.7-2.9,2.8-5,2.8C46.9,22,45,20.5,44.2,19.3z M45,27.5   c0.1-1.2,0.6-2.4,1.6-3.1c0.9-0.8,2.2-1.1,3.4-1h0.1c2.3,0.3,3.9,2.5,3.7,5.1c-0.1,0.6-0.1,1-0.1,1.5c-1.1,1-1.9,1.6-2.5,1.6   c-0.6,0-1-0.6-1.5-1.2c-0.9-1.1-2.1-2.6-4.7-1.7C45,28.3,45,27.9,45,27.5z M44.9,29.7c2.2-0.9,3.1,0.1,4,1.2   c0.6,0.7,1.2,1.5,2.2,1.5h0.1c0.6,0,1.5-0.4,2.3-1.1c0,0.6-0.1,1-0.1,1.5c0,0.3-0.1,0.6-0.1,0.9c-3.3,1.8-4,0.7-5-0.5   c-0.7-1-1.6-2.2-3.6-1.7C44.9,30.9,44.9,30.4,44.9,29.7z M44.8,32.6c1.7-0.6,2.1,0.2,2.8,1.2c0.6,0.8,1.4,1.8,2.8,1.8   c0.7,0,1.6-0.2,2.8-0.8c-0.3,3-0.6,6-1.6,11.8c-0.6,0-1.2,0-1.8,0c-1.7,0-3.5,0-5.2-0.1v-1.5C44.7,39.3,44.7,36.2,44.8,32.6z    M43.8,31.7c-0.1,1.2-0.1,2.4-0.1,3.6c-0.6,0-1.1,0.1-1.7,0.1l-0.4-3.6C42.5,31.8,43.2,31.8,43.8,31.7z M43.8,45v1.4   c-0.2,0-0.4,0-0.6,0l-0.9-9.9c0.6,0,1-0.1,1.6-0.1C43.8,38.8,43.8,41.4,43.8,45z M42.2,46.3c-0.9-0.1-1.9-0.1-2.8-0.2l-2.6-26.9   l2.8-0.3L42.2,46.3z M35.9,12.6l1.8,2.6l-2.9,0.3L35.9,12.6z M33.5,18.5l0.8-2l3.9-0.5l1.3,1.8V18L33.5,18.5L33.5,18.5z M33.7,19.6   l2.3-0.3l2.5,26.7c-0.8-0.1-1.6-0.1-2.3-0.2L33.7,19.6z M35.2,45.8c-3.9-0.5-7.6-1-10.7-1.8c-3.4-0.8-5.7-1.7-7.2-2.6   c2.9-1.7,8.8-3.3,17.1-4.2L35.2,45.8z M24.5,34.2c2.8-0.6,6-1.2,9.5-1.7l0.4,3.6c-7.6,0.8-14.4,2.4-18,4.7   c-0.8-0.6-1.1-1.2-1.1-1.7C15.2,37.8,17.6,35.9,24.5,34.2z M49.9,94.1c-17,0-31.1-9.7-34.2-22.4c1.7,1.3,4.7,2.5,8.8,3.5   c6.8,1.5,15.8,2.4,25.3,2.4s18.5-0.8,25.3-2.5c4.9-1.1,7.4-2.5,8.9-3.8C81.2,84.2,67,94.1,49.9,94.1z M84.6,66.5c0,1-0.1,2-0.2,2.9   c-0.6,1.1-2.7,3-9.5,4.6c-6.6,1.7-15.5,2.6-25.1,2.6s-18.5-0.9-25.2-2.5c-6.3-1.5-9-3.2-9.4-4.3c-0.2-1.1-0.3-2.2-0.3-3.3v-5.4   c1.5,1.4,4.8,2.7,9.3,3.8c6.8,1.6,15.9,2.5,25.5,2.5s18.7-0.8,25.5-2.5c5.3-1.2,7.9-2.8,9.3-4L84.6,66.5z M84.6,59.4   c-0.6,1.1-2.8,3-9.5,4.6c-6.7,1.6-15.7,2.4-25.3,2.4S31.3,65.5,24.5,64c-6.5-1.6-9.2-3.3-9.5-4.4v-8.6c1.5,1.4,4.8,2.7,9.3,3.8   c6.8,1.6,15.9,2.5,25.5,2.5s18.7-0.8,25.5-2.5c5.3-1.2,8-2.8,9.3-4L84.6,59.4z M84.7,49.2c-0.6,1.1-2.8,3-9.5,4.6   c-6.7,1.6-15.7,2.4-25.3,2.4s-18.5-0.8-25.3-2.4c-6.5-1.6-9.2-3.3-9.5-4.4v-8.2c3.9,3.8,18,6.5,34.8,6.5s30.9-2.8,34.8-6.5V49.2z"/></g><text x="0" y="115" fill="#000000" font-size="5px" font-weight="bold" font-family="'Helvetica Neue', Helvetica, Arial-Unicode, Arial, Sans-serif">Created by icongeek</text><text x="0" y="120" fill="#000000" font-size="5px" font-weight="bold" font-family="'Helvetica Neue', Helvetica, Arial-Unicode, Arial, Sans-serif">from the Noun Project</text></svg>